HIERARCHY
ROOT Root
{
  OFFSET 0.0 0.0 0.0
  CHANNELS 6 Xposition Yposition Zposition Zrotation Yrotation Xrotation
  JOINT Hips
  {
    OFFSET 0.0 100.0 0.0
    CHANNELS 6 Xposition Yposition Zposition Zrotation Yrotation Xrotation
    JOINT Spine1
    {
      OFFSET 5.003913 -0.037094 -0.013727
      CHANNELS 3 Zrotation Yrotation Xrotation
      JOINT Spine2
      {
        OFFSET 7.125363 -1e-06 0.0
        CHANNELS 3 Zrotation Yrotation Xrotation
        JOINT Chest
        {
          OFFSET 7.594027 1e-06 0.0
          CHANNELS 3 Zrotation Yrotation Xrotation
          JOINT Neck1
          {
            OFFSET 26.313086 -0.460272 -0.181672
            CHANNELS 3 Zrotation Yrotation Xrotation
            JOINT Neck2
            {
              OFFSET 8.045911 0.0 0.0
              CHANNELS 3 Zrotation Yrotation Xrotation
              JOINT Head
              {
                OFFSET 6.432774 0.0 0.0
                CHANNELS 3 Zrotation Yrotation Xrotation
                JOINT HeadEnd
                {
                  OFFSET 16.169773 0.06451 0.00362
                  CHANNELS 3 Zrotation Yrotation Xrotation
                }
                JOINT Jaw
                {
                  OFFSET 0.108741 3.12938 0.002639
                  CHANNELS 3 Zrotation Yrotation Xrotation
                }
                JOINT LeftEye
                {
                  OFFSET 4.45173 8.166359 3.206392
                  CHANNELS 3 Zrotation Yrotation Xrotation
                }
                JOINT RightEye
                {
                  OFFSET 4.436895 8.135758 -3.222429
                  CHANNELS 3 Zrotation Yrotation Xrotation
                }
              }
            }
          }
          JOINT LeftShoulder
          {
            OFFSET 23.218927 5.195579 1.621656
            CHANNELS 3 Zrotation Yrotation Xrotation
            JOINT LeftArm
            {
              OFFSET 15.902118 2e-06 -2e-06
              CHANNELS 3 Zrotation Yrotation Xrotation
              JOINT LeftForeArm
              {
                OFFSET 28.739307 0.0 -1e-06
                CHANNELS 3 Zrotation Yrotation Xrotation
                JOINT LeftHand
                {
                  OFFSET 27.093981 -4e-06 0.0
                  CHANNELS 3 Zrotation Yrotation Xrotation
                  JOINT LeftHandThumb1
                  {
                    OFFSET 2.276781 3.380274 0.83384
                    CHANNELS 3 Zrotation Yrotation Xrotation
                    JOINT LeftHandThumb2
                    {
                      OFFSET 4.705309 -1e-06 -1e-06
                      CHANNELS 3 Zrotation Yrotation Xrotation
                      JOINT LeftHandThumb3
                      {
                        OFFSET 2.798515 0.0 3e-06
                        CHANNELS 3 Zrotation Yrotation Xrotation
                        JOINT LeftHandThumbEnd
                        {
                          OFFSET 3.180793 4e-06 -4e-06
                          CHANNELS 3 Zrotation Yrotation Xrotation
                        }
                      }
                    }
                  }
                  JOINT LeftHandIndex1
                  {
                    OFFSET 3.247786 2.352677 0.137192
                    CHANNELS 3 Zrotation Yrotation Xrotation
                    JOINT LeftHandIndex2
                    {
                      OFFSET 6.367095 1e-06 0.0
                      CHANNELS 3 Zrotation Yrotation Xrotation
                      JOINT LeftHandIndex3
                      {
                        OFFSET 3.662364 0.0 0.0
                        CHANNELS 3 Zrotation Yrotation Xrotation
                        JOINT LeftHandIndex4
                        {
                          OFFSET 2.329242 4e-06 -4e-06
                          CHANNELS 3 Zrotation Yrotation Xrotation
                          JOINT LeftHandIndexEnd
                          {
                            OFFSET 2.767823 1e-06 0.0
                            CHANNELS 3 Zrotation Yrotation Xrotation
                          }
                        }
                      }
                    }
                  }
                  JOINT LeftHandMiddle1
                  {
                    OFFSET 3.163612 0.945023 -0.406112
                    CHANNELS 3 Zrotation Yrotation Xrotation
                    JOINT LeftHandMiddle2
                    {
                      OFFSET 6.276789 3e-06 0.0
                      CHANNELS 3 Zrotation Yrotation Xrotation
                      JOINT LeftHandMiddle3
                      {
                        OFFSET 4.35652 -1e-06 4e-06
                        CHANNELS 3 Zrotation Yrotation Xrotation
                        JOINT LeftHandMiddle4
                        {
                          OFFSET 2.996877 0.0 8e-06
                          CHANNELS 3 Zrotation Yrotation Xrotation
                          JOINT LeftHandMiddleEnd
                          {
                            OFFSET 2.323256 3e-06 -4e-06
                            CHANNELS 3 Zrotation Yrotation Xrotation
                          }
                        }
                      }
                    }
                  }
                  JOINT LeftHandRing1
                  {
                    OFFSET 2.882606 -0.309162 0.107445
                    CHANNELS 3 Zrotation Yrotation Xrotation
                    JOINT LeftHandRing2
                    {
                      OFFSET 6.033198 0.0 4e-06
                      CHANNELS 3 Zrotation Yrotation Xrotation
                      JOINT LeftHandRing3
                      {
                        OFFSET 4.350578 3e-06 0.0
                        CHANNELS 3 Zrotation Yrotation Xrotation
                        JOINT LeftHandRing4
                        {
                          OFFSET 2.651321 2e-06 -7e-06
                          CHANNELS 3 Zrotation Yrotation Xrotation
                          JOINT LeftHandRingEnd
                          {
                            OFFSET 1.937663 1e-06 -4e-06
                            CHANNELS 3 Zrotation Yrotation Xrotation
                          }
                        }
                      }
                    }
                  }
                  JOINT LeftHandPinky1
                  {
                    OFFSET 2.865315 -1.525436 0.575687
                    CHANNELS 3 Zrotation Yrotation Xrotation
                    JOINT LeftHandPinky2
                    {
                      OFFSET 5.54936 1e-06 -8e-06
                      CHANNELS 3 Zrotation Yrotation Xrotation
                      JOINT LeftHandPinky3
                      {
                        OFFSET 3.070974 0.0 -4e-06
                        CHANNELS 3 Zrotation Yrotation Xrotation
                        JOINT LeftHandPinky4
                        {
                          OFFSET 1.549672 1e-06 0.0
                          CHANNELS 3 Zrotation Yrotation Xrotation
                          JOINT LeftHandPinkyEnd
                          {
                            OFFSET 1.952123 0.0 0.0
                            CHANNELS 3 Zrotation Yrotation Xrotation
                          }
                        }
                      }
                    }
                  }
                }
              }
            }
          }
          JOINT RightShoulder
          {
            OFFSET 23.161716 5.296122 -1.380114
            CHANNELS 3 Zrotation Yrotation Xrotation
            JOINT RightArm
            {
              OFFSET -16.027195 -2e-06 1.1e-05
              CHANNELS 3 Zrotation Yrotation Xrotation
              JOINT RightForeArm
              {
                OFFSET -28.736639 4e-06 2e-06
                CHANNELS 3 Zrotation Yrotation Xrotation
                JOINT RightHand
                {
                  OFFSET -27.133619 6e-06 0.0
                  CHANNELS 3 Zrotation Yrotation Xrotation
                  JOINT RightHandThumb1
                  {
                    OFFSET -2.274328 -3.351035 -0.83067
                    CHANNELS 3 Zrotation Yrotation Xrotation
                    JOINT RightHandThumb2
                    {
                      OFFSET -4.703594 -3e-06 2e-06
                      CHANNELS 3 Zrotation Yrotation Xrotation
                      JOINT RightHandThumb3
                      {
                        OFFSET -2.794935 -4e-06 -3e-06
                        CHANNELS 3 Zrotation Yrotation Xrotation
                        JOINT RightHandThumbEnd
                        {
                          OFFSET -3.183852 4e-06 1e-06
                          CHANNELS 3 Zrotation Yrotation Xrotation
                        }
                      }
                    }
                  }
                  JOINT RightHandIndex1
                  {
                    OFFSET -3.253496 -2.33755 -0.127667
                    CHANNELS 3 Zrotation Yrotation Xrotation
                    JOINT RightHandIndex2
                    {
                      OFFSET -6.344434 0.0 0.0
                      CHANNELS 3 Zrotation Yrotation Xrotation
                      JOINT RightHandIndex3
                      {
                        OFFSET -3.654871 0.0 -8e-06
                        CHANNELS 3 Zrotation Yrotation Xrotation
                        JOINT RightHandIndex4
                        {
                          OFFSET -2.327586 -1e-06 0.0
                          CHANNELS 3 Zrotation Yrotation Xrotation
                          JOINT RightHandIndexEnd
                          {
                            OFFSET -2.770001 3e-06 8e-06
                            CHANNELS 3 Zrotation Yrotation Xrotation
                          }
                        }
                      }
                    }
                  }
                  JOINT RightHandMiddle1
                  {
                    OFFSET -3.168223 -0.944764 0.411762
                    CHANNELS 3 Zrotation Yrotation Xrotation
                    JOINT RightHandMiddle2
                    {
                      OFFSET -6.266691 -1e-06 -4e-06
                      CHANNELS 3 Zrotation Yrotation Xrotation
                      JOINT RightHandMiddle3
                      {
                        OFFSET -4.348901 0.0 0.0
                        CHANNELS 3 Zrotation Yrotation Xrotation
                        JOINT RightHandMiddle4
                        {
                          OFFSET -3.00024 2e-06 -4e-06
                          CHANNELS 3 Zrotation Yrotation Xrotation
                          JOINT RightHandMiddleEnd
                          {
                            OFFSET -2.321477 -4e-06 -4e-06
                            CHANNELS 3 Zrotation Yrotation Xrotation
                          }
                        }
                      }
                    }
                  }
                  JOINT RightHandRing1
                  {
                    OFFSET -2.885654 0.293261 -0.119232
                    CHANNELS 3 Zrotation Yrotation Xrotation
                    JOINT RightHandRing2
                    {
                      OFFSET -6.032835 -1e-06 -4e-06
                      CHANNELS 3 Zrotation Yrotation Xrotation
                      JOINT RightHandRing3
                      {
                        OFFSET -4.33881 0.0 -4e-06
                        CHANNELS 3 Zrotation Yrotation Xrotation
                        JOINT RightHandRing4
                        {
                          OFFSET -2.654903 -4e-06 -4e-06
                          CHANNELS 3 Zrotation Yrotation Xrotation
                          JOINT RightHandRingEnd
                          {
                            OFFSET -1.935122 0.0 4e-06
                            CHANNELS 3 Zrotation Yrotation Xrotation
                          }
                        }
                      }
                    }
                  }
                  JOINT RightHandPinky1
                  {
                    OFFSET -2.866241 1.503904 -0.60527
                    CHANNELS 3 Zrotation Yrotation Xrotation
                    JOINT RightHandPinky2
                    {
                      OFFSET -5.553177 -2e-06 0.0
                      CHANNELS 3 Zrotation Yrotation Xrotation
                      JOINT RightHandPinky3
                      {
                        OFFSET -3.062664 -1e-06 -4e-06
                        CHANNELS 3 Zrotation Yrotation Xrotation
                        JOINT RightHandPinky4
                        {
                          OFFSET -1.546529 2e-06 4e-06
                          CHANNELS 3 Zrotation Yrotation Xrotation
                          JOINT RightHandPinkyEnd
                          {
                            OFFSET -1.952341 0.0 -4e-06
                            CHANNELS 3 Zrotation Yrotation Xrotation
                          }
                        }
                      }
                    }
                  }
                }
              }
            }
          }
        }
      }
    }
    JOINT LeftLeg
    {
      OFFSET -8.443107 2.567604 10.043214
      CHANNELS 3 Zrotation Yrotation Xrotation
      JOINT LeftShin
      {
        OFFSET 43.229198 1e-06 -1e-06
        CHANNELS 3 Zrotation Yrotation Xrotation
        JOINT LeftFoot
        {
          OFFSET 42.298611 1e-06 1e-06
          CHANNELS 3 Zrotation Yrotation Xrotation
          JOINT LeftToeBase
          {
            OFFSET 14.165858 1e-06 0.0
            CHANNELS 3 Zrotation Yrotation Xrotation
            JOINT LeftToeEnd
            {
              OFFSET 6.7141 -0.234461 0.0
              CHANNELS 3 Zrotation Yrotation Xrotation
            }
          }
        }
      }
    }
    JOINT RightLeg
    {
      OFFSET -8.303923 2.592729 -10.047278
      CHANNELS 3 Zrotation Yrotation Xrotation
      JOINT RightShin
      {
        OFFSET -43.369682 0.0 1e-06
        CHANNELS 3 Zrotation Yrotation Xrotation
        JOINT RightFoot
        {
          OFFSET -42.260784 4e-06 2e-06
          CHANNELS 3 Zrotation Yrotation Xrotation
          JOINT RightToeBase
          {
            OFFSET -14.222245 -2e-06 -1e-06
            CHANNELS 3 Zrotation Yrotation Xrotation
            JOINT RightToeEnd
            {
              OFFSET -6.660062 0.232574 -2e-06
              CHANNELS 3 Zrotation Yrotation Xrotation
            }
          }
        }
      }
    }
  }
}
MOTION
Frames: 4
Frame Time: 0.03333333333333333
0.0 0.0 0.0 0.0 -0.0 0.0 -1.075847 96.536285 6.269707 92.355782 3.717998 88.885422 -3.817522 -1.327552 0.592078 -12.541741 -0.263231 1.169023 25.815788 -0.374394 -1.124414 36.677464 -8.589339 2.480262 -2.378329 -0.996422 0.110713 -22.0854 -1.179678 0.091697 4e-06 1e-06 0.0 -0.095321 0.042263 0.013619 0.141518 0.183174 0.047663 0.151395 -0.105001 -0.01457 -120.746193 -69.52948 141.840134 39.799671 -55.160141 -6.586372 32.935085 0.117767 0.135673 0.987483 7.195411 14.347436 17.636627 -26.322733 52.411205 -19.466661 -14.395598 29.410395 -0.0 -8.774822 -2e-06 15.712963 -18.274509 6.334322 -0.609776 -1.795653 -3.88933 -4.80709 -11.046811 -2.937852 4e-06 -20.976019 0.0 -5.01997 -25.033556 -4.031882 6e-06 2e-06 2e-06 -10.634537 -5.686972 -3.565588 10.573274 -17.922951 -3.113899 1e-06 -13.821209 -1e-06 -0.501779 -31.181511 -4.027017 -11.108658 -59.646034 7.272453 -13.982714 -7.150198 -2.875042 13.772731 -8.401492 -3.218244 0.347732 -34.211559 0.771652 -0.963031 -17.73337 2.621023 -2e-06 -1e-06 -0.0 -17.346422 -20.095217 -4.201784 21.757559 -1.638374 3.866426 2e-06 -6.338824 -0.0 -1.697591 -22.591747 -6.194009 1e-06 -5e-06 -4e-06 46.575699 -77.273979 154.943054 38.036743 -59.097237 2.906304 31.230734 -0.014919 -0.036754 -3.825427 11.250368 10.893673 22.182112 -20.375898 49.933327 -16.701811 -16.74353 28.476532 -3e-06 -12.690599 -1e-06 16.290455 -17.506397 2.218641 -0.105919 -1.513855 -4.275883 -5.039041 -5.612869 -2.953555 4e-06 -11.02052 -1e-06 -6.111295 -15.89533 -3.840472 1e-06 -0.0 -1e-06 -10.283369 -5.680287 -4.341838 11.028294 -11.302404 -2.372634 -1.38427 -14.238579 -6.320119 -0.625438 -26.924187 -3.827599 -4.055283 -49.635113 -3.899668 -13.708522 -7.363474 -3.720941 18.14115 -14.052739 -3.242675 6e-06 -18.78727 -1e-06 -0.429713 -8.456041 2.555506 1e-06 -1e-06 -0.0 -15.923534 -20.094482 -5.473587 30.41921 -7.190825 1.73593 4e-06 -8.162925 -2e-06 -1.861904 -22.861469 -6.167941 -1e-06 -1e-06 1e-06 -179.131836 -8.046801 -11.744817 24.868793 -0.076992 0.006938 -89.322815 3.227524 -9.218632 -9.487474 1.613385 1.979643 -0.999998 -0.0 -0.0 -5.167142 -6.339606 -7.853458 34.661835 -0.016556 0.15112 -94.323189 -2.026993 -2.936182 -8.321277 0.780583 1.671113 -1.000002 -0.0 -0.0 
0.0 0.0 0.0 0.0 -0.0 0.0 -1.523015 96.065567 6.245509 91.817078 3.198442 88.875069 -3.319839 -0.926634 0.489387 -12.348284 -0.261271 1.046447 25.618198 -0.317697 -1.190259 37.61306 -9.411811 2.511355 -2.462404 -0.922312 0.156996 -22.426231 -1.281893 0.266855 5e-06 0.0 0.0 -0.104237 0.012907 0.081653 0.089957 0.127717 0.109951 0.111458 -0.110081 0.058623 -119.380928 -69.897926 140.753067 41.205452 -54.891018 -8.725579 32.876289 -0.211358 0.038565 1.01313 7.46915 14.953682 17.636625 -26.322725 52.411182 -19.466652 -14.395596 29.410378 -0.0 -8.77482 -3e-06 15.723945 -18.285793 6.263527 -0.609775 -1.795654 -3.889323 -4.807088 -11.046808 -2.937852 3e-06 -20.976013 -1e-06 -5.019971 -25.033552 -4.031882 6e-06 1e-06 1e-06 -10.634531 -5.68697 -3.565585 10.57327 -17.922945 -3.113897 2e-06 -13.821203 1e-06 -0.501779 -31.181498 -4.027014 -11.189242 -59.520393 7.365556 -13.982712 -7.150197 -2.87504 13.772727 -8.401489 -3.218239 0.34773 -34.211544 0.771658 -0.96303 -17.733366 2.621019 -2e-06 0.0 -1e-06 -17.346418 -20.095211 -4.201777 21.757555 -1.638374 3.866428 2e-06 -6.338821 0.0 -1.697594 -22.591738 -6.194001 1e-06 -7e-06 -3e-06 48.600971 -77.832176 153.046295 38.690575 -59.331306 2.032701 31.423901 -0.13952 -0.018342 -3.725656 11.216054 10.120522 22.182117 -20.375895 49.933319 -16.701807 -16.743528 28.476522 -2e-06 -12.690601 -2e-06 16.420708 -17.477451 2.153436 -0.105919 -1.513857 -4.275881 -5.039042 -5.612871 -2.953554 3e-06 -11.020524 0.0 -6.1113 -15.895332 -3.84047 0.0 0.0 0.0 -10.283371 -5.68029 -4.341837 11.028292 -11.302404 -2.372633 -1.384271 -14.238583 -6.320121 -0.62544 -26.924191 -3.827602 -4.04709 -49.763565 -3.915056 -13.708526 -7.363478 -3.720937 18.141151 -14.052739 -3.242676 6e-06 -18.78727 -3e-06 -0.429712 -8.456044 2.555506 -0.0 2e-06 -0.0 -15.923539 -20.094484 -5.473581 30.41921 -7.190824 1.735931 3e-06 -8.162927 -3e-06 -1.861906 -22.861467 -6.167943 1e-06 -4e-06 -1e-06 178.871613 -9.456139 -12.07595 27.944658 -0.093384 0.098869 -90.754768 3.610922 -9.569756 -9.535756 1.586008 1.982778 -0.999999 -0.0 -0.0 -6.614318 -5.417192 -7.424022 36.520554 0.003337 0.120321 -95.289017 -2.940167 -2.77322 -8.249175 0.786733 1.684894 -1.000002 -0.0 0.0 
0.0 0.0 0.0 0.0 -0.0 0.0 -2.016744 95.303764 6.141414 90.934059 2.539987 88.876434 -2.729048 -0.275538 0.378758 -12.126754 -0.243981 0.882434 25.460138 -0.047817 -1.251487 38.16396 -10.314808 2.474454 -2.557411 -0.85738 0.156064 -22.73007 -1.511975 0.413047 6e-06 0.0 -0.0 -0.107646 0.002876 0.09488 0.040037 0.112854 0.12483 0.082333 -0.117678 0.06904 -118.520844 -70.121483 140.223129 42.445187 -54.340809 -10.54073 33.303646 -0.411176 -0.026887 1.031247 7.668899 15.428465 17.636629 -26.322731 52.411182 -19.46666 -14.395596 29.410385 -1e-06 -8.774821 -2e-06 15.762335 -18.315155 6.160688 -0.609777 -1.795653 -3.88933 -4.807087 -11.046809 -2.937849 4e-06 -20.976015 0.0 -5.019973 -25.033552 -4.031877 7e-06 2e-06 -1e-06 -10.634535 -5.68697 -3.565588 10.573272 -17.922947 -3.1139 2e-06 -13.821206 1e-06 -0.501776 -31.181505 -4.027016 -11.225826 -59.421055 7.304947 -13.982714 -7.150198 -2.875042 13.772731 -8.401491 -3.218242 0.347734 -34.211555 0.771653 -0.96303 -17.73337 2.621018 -2e-06 -0.0 -2e-06 -17.346416 -20.095215 -4.201787 21.757555 -1.638375 3.866429 2e-06 -6.338822 -0.0 -1.69759 -22.591747 -6.194002 0.0 -3e-06 -2e-06 50.672913 -78.530128 150.939941 38.747841 -59.346607 1.563973 31.915255 -0.19294 -0.033539 -3.533315 11.210481 8.663438 22.182116 -20.375891 49.933319 -16.701811 -16.74353 28.47653 -2e-06 -12.690601 0.0 16.466265 -17.446333 2.129899 -0.105919 -1.513856 -4.27588 -5.039041 -5.612872 -2.953556 4e-06 -11.020525 -1e-06 -6.1113 -15.895334 -3.840471 -1e-06 1e-06 -0.0 -10.283371 -5.680289 -4.341834 11.028295 -11.302406 -2.372633 -1.38427 -14.238583 -6.32012 -0.62544 -26.924194 -3.8276 -4.015563 -49.731197 -3.986802 -13.708527 -7.363479 -3.720939 18.141151 -14.052739 -3.242676 3e-06 -18.78727 -2e-06 -0.42971 -8.456048 2.555505 -1e-06 1e-06 1e-06 -15.923538 -20.094484 -5.473582 30.41921 -7.190823 1.735927 -0.0 -8.162925 -1e-06 -1.861903 -22.861471 -6.167946 1e-06 -2e-06 -3e-06 176.023376 -11.59257 -12.557012 32.426247 -0.134423 0.145085 -92.812424 4.346115 -9.961937 -9.654127 1.556137 1.994864 -0.999999 0.0 -0.0 -8.681401 -4.0625 -6.848333 39.280823 0.05402 0.049364 -96.672722 -4.221922 -2.57913 -7.962013 0.806111 1.698488 -1.000002 -0.0 0.0 
0.0 0.0 0.0 0.0 -0.0 0.0 -2.535375 94.352814 6.038202 89.551338 1.851512 88.731804 -2.058861 0.700369 0.263646 -11.873014 -0.151028 0.779124 25.382973 0.53081 -1.274205 38.198868 -11.279777 2.305771 -2.661865 -0.736898 0.131657 -23.003029 -1.850331 0.668713 6e-06 1e-06 -0.0 -0.114529 -0.008378 0.112196 0.013625 0.10176 0.150867 0.078718 -0.132061 0.077205 -118.153557 -70.186234 140.238434 43.54974 -53.713139 -12.354393 33.998821 -0.455896 -0.088153 1.261587 8.298285 16.055643 17.636625 -26.322731 52.41119 -19.466652 -14.395594 29.410381 -0.0 -8.77482 1e-06 15.735839 -18.319693 6.133234 -0.609775 -1.795652 -3.889324 -4.807087 -11.046809 -2.937849 5e-06 -20.976015 1e-06 -5.019969 -25.033558 -4.031882 6e-06 2e-06 2e-06 -10.634534 -5.68697 -3.565585 10.573272 -17.922947 -3.113903 2e-06 -13.821208 1e-06 -0.501775 -31.181498 -4.027018 -11.253871 -59.461891 7.336684 -13.982714 -7.150198 -2.87504 13.772729 -8.40149 -3.218245 0.347733 -34.211544 0.771656 -0.96303 -17.73337 2.621022 -2e-06 1e-06 -1e-06 -17.34642 -20.095217 -4.201781 21.757557 -1.638375 3.866427 3e-06 -6.338822 -2e-06 -1.697591 -22.591742 -6.194002 1e-06 -5e-06 -1e-06 53.20887 -79.341446 148.43187 38.672794 -58.948174 1.530287 32.387833 -0.091548 -0.009003 -3.381625 11.360758 6.959149 22.182117 -20.375898 49.933319 -16.701811 -16.74353 28.476532 -2e-06 -12.690601 -0.0 16.459335 -17.465944 2.135007 -0.105918 -1.513856 -4.275881 -5.039042 -5.612873 -2.953557 4e-06 -11.020525 -3e-06 -6.1113 -15.895336 -3.840471 0.0 1e-06 -0.0 -10.283371 -5.680289 -4.341838 11.028294 -11.302404 -2.372634 -1.38427 -14.238581 -6.320119 -0.62544 -26.924187 -3.827601 -4.004664 -49.672512 -4.025115 -13.708528 -7.363479 -3.720936 18.141148 -14.052739 -3.242673 5e-06 -18.78727 -3e-06 -0.42971 -8.456047 2.555503 -1e-06 -0.0 0.0 -15.923539 -20.094484 -5.473582 30.419214 -7.190823 1.735929 0.0 -8.162925 -2e-06 -1.861903 -22.861471 -6.167942 -0.0 -1e-06 -3e-06 172.999359 -14.6354 -13.470635 37.380966 -0.190639 0.243506 -95.0914 5.549852 -10.596703 -10.110348 1.52042 1.994849 -0.999999 0.0 -0.0 -10.870903 -2.14964 -6.426418 42.232155 0.121311 -0.039734 -98.156448 -5.528782 -2.241756 -7.854318 0.803629 1.699128 -1.000002 0.0 -0.0 
